<svg version="1.1" xmlns="http://www.w3.org/2000/svg" xmlns:xlink="http://www.w3.org/1999/xlink" width="1110.5" height="700" viewBox="-40.5,56,1110.5,700"><g id="document" fill="#ffffff" fill-rule="nonzero" stroke="#000000" stroke-width="0" stroke-linecap="butt" stroke-linejoin="miter" stroke-miterlimit="10" stroke-dasharray="" stroke-dashoffset="0" font-family="none" font-weight="none" font-size="none" text-anchor="none" style="mix-blend-mode: normal"><rect x="370" y="40" transform="scale(1,1.4)" width="700" height="500" id="Shape 1 1" vector-effect="non-scaling-stroke"/></g><g fill="none" fill-rule="nonzero" stroke="none" stroke-width="none" stroke-linecap="none" stroke-linejoin="none" stroke-miterlimit="10" stroke-dasharray="" stroke-dashoffset="0" font-family="none" font-weight="none" font-size="none" text-anchor="none" style="mix-blend-mode: normal"><g id="stage"><g id="layer1 1"><path d="M-40,285v-78h73v78z" id="Path 1" fill-opacity="0" fill="#000000" stroke="#000000" stroke-width="1" stroke-linecap="round" stroke-linejoin="round"/><path d="M875.43714,490.79029c-6.65245,41.78029 -38.16579,74.20369 -70.35353,99.19874c-9.98147,7.75101 -20.5137,16.27117 -33.97784,13.99165c-3.52989,-0.59762 -11.27038,-4.22674 -11.09362,-8.856c0.14911,-3.90505 11.27544,-2.25609 13.61455,-1.88876c10.03367,1.57565 23.15835,3.81022 25.92186,15.27039c1.54966,6.4264 -2.56775,13.85173 -7.25853,18.06923c-9.80674,8.81729 -22.78572,14.52686 -34.84913,19.52012c-13.0207,5.13344 -26.72351,8.88128 -40.78805,9.13513" id="Path 1" fill-opacity="0" fill="#000000" stroke="#000000" stroke-width="5" stroke-linecap="round" stroke-linejoin="round"/><path d="M814.43714,258.20848c-1.43289,9.32406 -3.44989,18.27452 -8.95725,26.1773c-15.08767,21.65008 -49.75137,21.22404 -73.2009,20.085c-12.07915,-0.58673 -23.98484,-2.59716 -35.97365,-4.04061c-8.25655,-0.99409 -16.5434,-1.69856 -24.84818,-2.13778c-43.25279,-2.28754 -100.03445,2.21115 -121.74257,46.64227c-3.91112,8.00509 -6.03112,16.66343 -7.07995,25.4752c-1.30155,18.52702 3.62381,34.57939 20.93485,43.69983c21.62042,11.39086 47.79497,12.54661 71.22219,18.23874c32.28477,7.84425 62.79377,21.64524 89.82578,40.72043" id="Path 1" fill-opacity="0" fill="#000000" stroke="#000000" stroke-width="5" stroke-linecap="round" stroke-linejoin="round"/><path d="M641,175c41.4742,-1.46116 84.84691,-9.88027 125.8927,-0.1634c12.18611,2.88485 23.99919,7.21548 35.17316,12.85881c13.90747,7.02387 26.96564,15.81405 41.95209,20.52715c15.65137,4.92222 39.39707,7.97143 45.53871,-12.51436c3.83891,-12.80489 -9.99472,-18.94156 -20.23165,-14.32182c-17.49023,7.89304 -28.15782,27.46916 -39.20366,42.21907c-0.56561,0.7482 -1.13122,1.4964 -1.69682,2.2446" id="Path 1" fill-opacity="0" fill="#000000" stroke="#000000" stroke-width="5" stroke-linecap="round" stroke-linejoin="round"/><path d="M542.57231,182.60192v0v0c2.32892,-0.28785 4.10887,-0.23468 5.33984,0.15952v0v0c1.23097,0.3942 1.91897,1.17794 2.06398,2.35122v0v0c0.14502,1.17328 -0.10214,2.10843 -0.74146,2.80544v0v0c-0.63932,0.69701 -1.41771,1.10222 -2.33516,1.21561v0v0c-0.91745,0.1134 -1.77117,-0.01843 -2.56116,-0.39548v0v0c-0.78999,-0.37705 -1.3741,-0.93628 -1.75235,-1.6777v0v0c-0.6528,0.08069 -1.24802,0.37369 -1.78564,0.879v0v0c-0.53763,0.50532 -0.84331,1.11183 -0.91705,1.81955v0v0c3.59806,0.4151 6.22553,1.09347 7.88242,2.03511v0v0c1.65689,0.94163 2.59437,2.29462 2.81244,4.05895v0v0c0.21807,1.76433 -0.40584,3.27448 -1.87172,4.53043v0v0c-1.46588,1.25595 -3.55295,2.0513 -6.2612,2.38603v0v0c-2.70825,0.33474 -4.67276,0.20138 -5.89353,-0.40008v0v0c-1.22076,-0.60146 -1.90638,-1.51088 -2.05685,-2.72827v0v0c-0.15047,-1.21739 0.09039,-2.38463 0.72257,-3.50171v0v0c0.46864,0.74816 1.2671,1.37494 2.39539,1.88035v0v0c1.12828,0.50541 2.20408,0.69487 3.2274,0.56839v0v0c1.88784,-0.23333 3.01344,-0.98149 3.37681,-2.24448v0v0c-2.97677,-0.02616 -5.30951,-0.56631 -6.99822,-1.62044v0v0c-1.68871,-1.05414 -2.6421,-2.46337 -2.86017,-4.22771v0v0c-0.14611,-1.1821 0.04118,-2.27555 0.56185,-3.28033v0v0c0.52067,-1.00478 1.2445,-1.81524 2.17146,-2.43137v0v0c1.81865,-1.2279 3.64543,-1.95525 5.48034,-2.18204zM563.09345,196.24086v0l-0.28101,-0.09961v0c-0.31936,1.3292 -0.88038,2.40614 -1.68305,3.23082v0v0c-0.80267,0.82468 -1.75095,1.30462 -2.84484,1.43982v0v0c-1.49968,0.18536 -2.76921,-0.23094 -3.80859,-1.2489v0v0c-1.03937,-1.01796 -1.67573,-2.47086 -1.90906,-4.3587v0v0c-0.36199,-2.9288 0.31851,-5.50279 2.0415,-7.722v0v0c1.723,-2.2192 4.04889,-3.5098 6.97769,-3.87179v0v0c0.75866,-0.09377 1.4643,-0.10933 2.1169,-0.04669v0v0c0.16692,0.48093 0.2821,0.90556 0.34554,1.27389v0v0c0.81239,-0.67362 1.68613,-1.06822 2.62122,-1.1838v0v0c1.28796,-0.15919 2.01808,0.45813 2.19036,1.85195v0v0c0.06106,0.49401 -0.03256,2.01922 -0.28084,4.57563v0v0c-0.24829,2.5564 -0.29829,4.43448 -0.15,5.63423v0v0c0.14829,1.19975 0.52425,1.99518 1.12789,2.38631v0v0c-0.88117,0.98664 -1.85547,1.54593 -2.92289,1.67786v0v0c-1.06742,0.13193 -1.88298,-0.0897 -2.44668,-0.66489v0v0c-0.5637,-0.57519 -0.92841,-1.53323 -1.09414,-2.87413M557.38205,193.29256v0v0c0.10685,0.86452 0.37002,1.50821 0.7895,1.93105v0v0c0.41948,0.42284 0.96444,0.59283 1.63489,0.50997v0v0c0.67045,-0.08287 1.30154,-0.41165 1.89329,-0.98635v0v0c0.59174,-0.5747 1.05473,-1.32157 1.38896,-2.24061v0v0c-0.06146,-1.8016 0.02199,-3.95251 0.25036,-6.45271v0v0c-1.78198,0.22025 -3.27264,1.05831 -4.47199,2.51419v0v0c-1.19935,1.45588 -1.69435,3.0307 -1.485,4.72446zM573.58219,181.53669v0l-1.74372,-1.93402v0c2.04623,-1.56055 3.7045,-2.41933 4.97482,-2.57634v0v0c0.72338,-0.08941 1.25302,-0.00709 1.58894,0.24695v0v0c0.33592,0.25404 0.55349,0.78245 0.65271,1.58522v0v0c0.09922,0.80277 -0.01367,3.11405 -0.33867,6.93384v0v0c-0.325,3.81979 -0.39483,6.47952 -0.20947,7.97921v0v0c0.18536,1.49968 0.58967,2.52448 1.21294,3.0744v0v0c-1.12818,1.01717 -2.19511,1.58791 -3.20078,1.71221v0v0c-1.00567,0.1243 -1.78317,-0.11547 -2.33249,-0.71931v0v0c-0.54932,-0.60384 -0.89595,-1.48799 -1.03988,-2.65245v0v0c-0.14393,-1.16446 -0.11192,-3.58666 0.09603,-7.26658v0v0c0.20794,-3.67993 0.32113,-5.80764 0.33957,-6.38313zM592.76074,192.57403v0l-0.28101,-0.09961v0c-0.31936,1.3292 -0.88038,2.40614 -1.68305,3.23082v0v0c-0.80267,0.82468 -1.75095,1.30462 -2.84484,1.43982v0v0c-1.49968,0.18536 -2.76921,-0.23094 -3.80859,-1.2489v0v0c-1.03937,-1.01796 -1.67573,-2.47086 -1.90906,-4.3587v0v0c-0.36199,-2.9288 0.31851,-5.50279 2.0415,-7.722v0v0c1.723,-2.2192 4.04889,-3.5098 6.97769,-3.87179v0v0c0.75866,-0.09377 1.4643,-0.10933 2.1169,-0.04669v0v0c0.16692,0.48093 0.2821,0.90556 0.34554,1.27389v0v0c0.81239,-0.67362 1.68613,-1.06822 2.62122,-1.1838v0v0c1.28796,-0.15919 2.01808,0.45813 2.19036,1.85195v0v0c0.06106,0.49401 -0.03256,2.01922 -0.28084,4.57563v0v0c-0.24829,2.5564 -0.29829,4.43448 -0.15,5.63423v0v0c0.14829,1.19975 0.52425,1.99518 1.12789,2.38631v0v0c-0.88117,0.98664 -1.85547,1.54593 -2.92289,1.67786v0v0c-1.06742,0.13193 -1.88298,-0.0897 -2.44668,-0.66489v0v0c-0.5637,-0.57519 -0.92841,-1.53323 -1.09414,-2.87413M587.04934,189.62573v0v0c0.10685,0.86452 0.37002,1.50821 0.7895,1.93105v0v0c0.41948,0.42284 0.96444,0.59283 1.63489,0.50997v0v0c0.67045,-0.08287 1.30154,-0.41165 1.89329,-0.98635v0v0c0.59174,-0.5747 1.05473,-1.32157 1.38896,-2.24061v0v0c-0.06146,-1.8016 0.02199,-3.95251 0.25036,-6.45271v0v0c-1.78198,0.22025 -3.27264,1.05831 -4.47199,2.51419v0v0c-1.19935,1.45588 -1.69435,3.0307 -1.485,4.72446zM612.53487,191.47345v0l-0.28101,-0.09961v0c-1.15157,1.98736 -2.6801,3.09879 -4.58558,3.33431v0v0c-1.41147,0.17446 -2.67604,-0.23798 -3.79372,-1.2373v0v0c-1.11768,-0.99932 -1.79428,-2.45173 -2.02979,-4.35721v0v0c-0.29221,-2.36421 0.27098,-4.61919 1.68958,-6.76494v0v0c0.69384,-1.05305 1.6835,-1.95906 2.96898,-2.71803v0v0c1.28548,-0.75897 2.76629,-1.24203 4.4424,-1.4492v0v0c0.31758,-0.03925 0.88653,-0.07375 1.70685,-0.10349v0v0c-0.01051,-0.37487 0.01328,-0.83459 0.07136,-1.37916v0l-1.74372,-1.93402v0c2.04623,-1.56055 3.7045,-2.41933 4.97482,-2.57634v0v0c0.72338,-0.08941 1.25302,-0.00709 1.58894,0.24695v0v0c0.33592,0.25404 0.55349,0.78245 0.65271,1.58522v0v0c0.09922,0.80277 -0.01367,3.11405 -0.33867,6.93384v0v0c-0.325,3.81979 -0.39101,6.5104 -0.19802,8.07183v0v0c0.19299,1.56144 0.59349,2.55536 1.20149,2.98177v0v0c-0.88117,0.98664 -1.85547,1.54593 -2.92289,1.67786v0v0c-1.06742,0.13193 -1.8814,-0.04063 -2.44192,-0.5177v0v0c-0.56052,-0.47706 -0.88113,-1.042 -0.96182,-1.6948M606.6959,187.49301v0v0c0.1243,1.00567 0.48267,1.76746 1.07511,2.28536v0v0c0.59244,0.5179 1.27682,0.72887 2.05312,0.63292v0v0c1.00567,-0.1243 1.86425,-0.71407 2.57573,-1.7693v0v0c-0.10587,-3.17541 -0.04472,-5.94155 0.18345,-8.29842v0v0c-2.02898,0.25078 -3.56708,1.10366 -4.61427,2.55865v0v0c-1.0472,1.45498 -1.47158,2.98525 -1.27313,4.59079zM629.50695,178.78922v0v0c-0.62882,0.27476 -1.11495,0.61698 -1.4584,1.02664v0v0c-0.34345,0.40966 -0.62371,0.96826 -0.84078,1.67577v0v0c3.03624,0.07255 5.21431,0.44821 6.53419,1.12698v0v0c1.31988,0.67877 2.07468,1.78564 2.2644,3.32061v0v0c0.11994,0.97038 -0.04941,1.84665 -0.50803,2.62881v0v0c-0.45863,0.78216 -1.07966,1.40974 -1.8631,1.88274v0v0c-1.53814,0.88871 -3.09234,1.43011 -4.6626,1.62419v0v0c-4.46377,0.55171 -6.8145,-0.13399 -7.05219,-2.05712v0v0c-0.11994,-0.97038 0.19239,-1.99419 0.93697,-3.07143v0v0c0.51741,0.563 1.24886,1.00998 2.19437,1.34094v0v0c0.94551,0.33096 1.8417,0.4441 2.68858,0.33943v0v0c1.4644,-0.181 2.26697,-0.93401 2.40772,-2.25905v0v0c-2.72104,0.01388 -4.73595,-0.34611 -6.04473,-1.07999v0v0c-1.30878,-0.73388 -2.06239,-1.90359 -2.26084,-3.50914v0v0c-0.15701,-1.27032 0.13009,-2.38953 0.86129,-3.35764v0v0c0.73121,-0.96811 1.69747,-1.70105 2.89881,-2.19884v0v0c1.20133,-0.49778 2.58272,-0.84317 4.14415,-1.03616v0v0c1.56144,-0.19299 2.88593,-0.05666 3.97347,0.40901v0v0c1.08755,0.46566 1.68365,1.12193 1.78833,1.96881v0v0c0.10467,0.84688 -0.11017,1.53621 -0.64452,2.06799v0v0c-0.53435,0.53178 -1.14999,0.84074 -1.8469,0.92688v0v0c-0.69691,0.08614 -1.35497,-0.02061 -1.97417,-0.32025v0v0c-0.6192,-0.29964 -1.13121,-0.7827 -1.53602,-1.44918z" id="CompoundPath 1" fill="#000000" stroke="none" stroke-width="1" stroke-linecap="butt" stroke-linejoin="miter"/><path d="M783.08108,236.83052v0v0c1.52322,0.22673 2.63944,0.57275 3.34866,1.03807v0v0c0.70922,0.46532 1.00672,1.08167 0.8925,1.84905v0v0c-0.11422,0.76738 -0.43464,1.31534 -0.96125,1.64389v0v0c-0.52661,0.32855 -1.08994,0.44817 -1.69,0.35885v0v0c-0.60006,-0.08932 -1.11677,-0.32251 -1.55014,-0.69959v0v0c-0.43337,-0.37708 -0.70459,-0.83323 -0.81365,-1.36845v0v0c-0.42696,-0.06355 -0.85477,0.01726 -1.28343,0.24244v0v0c-0.42866,0.22518 -0.72841,0.55506 -0.89925,0.98964v0v0c2.20238,0.89399 3.74481,1.78411 4.62728,2.67035v0v0c0.88247,0.88625 1.23783,1.90635 1.06606,3.0603v0v0c-0.17176,1.15395 -0.83134,1.99939 -1.97872,2.53632v0v0c-1.14739,0.53693 -2.60674,0.67356 -4.37806,0.40991v0v0c-1.77132,-0.26366 -2.99017,-0.69278 -3.65656,-1.28737v0v0c-0.66639,-0.59459 -0.94033,-1.29 -0.82181,-2.08623v0v0c0.11852,-0.79623 0.47569,-1.49206 1.07151,-2.08749v0v0c0.16504,0.55535 0.55994,1.09184 1.18471,1.60946v0v0c0.62477,0.51762 1.2718,0.82624 1.94109,0.92587v0v0c1.23473,0.18379 2.07782,-0.09176 2.52926,-0.82664v0v0c-1.87777,-0.539 -3.25809,-1.28998 -4.14093,-2.25295v0v0c-0.88285,-0.96297 -1.23839,-2.02143 -1.06663,-3.17539v0v0c0.11508,-0.77315 0.42542,-1.43172 0.93102,-1.97571v0v0c0.5056,-0.54399 1.10555,-0.92945 1.79986,-1.15637v0v0c1.36554,-0.45727 2.64836,-0.5966 3.84847,-0.41796zM793.66388,249.05681v0l-0.16021,-0.11231v0c-0.43524,0.78447 -0.97901,1.36701 -1.63132,1.74762v0v0c-0.65231,0.38061 -1.33619,0.51767 -2.05164,0.41118v0v0c-0.98086,-0.146 -1.71058,-0.63206 -2.18917,-1.45819v0v0c-0.47859,-0.82613 -0.62599,-1.85656 -0.4422,-3.09129v0v0c0.28513,-1.91556 1.16721,-3.4238 2.64624,-4.52471v0v0c1.47903,-1.10091 3.17633,-1.5088 5.09189,-1.22368v0v0c0.4962,0.07386 0.94514,0.18786 1.34682,0.34201v0v0c0.02114,0.33341 0.01945,0.62214 -0.00508,0.86619v0v0c0.63194,-0.28338 1.25371,-0.37956 1.8653,-0.28852v0v0c0.84239,0.12539 1.19573,0.64389 1.06004,1.55552v0v0c-0.04809,0.32311 -0.37498,1.27114 -0.98066,2.84411v0v0c-0.60568,1.57297 -0.96692,2.7518 -1.08372,3.53649v0v0c-0.1168,0.78469 -0.01866,1.35367 0.2944,1.70694v0v0c-0.73038,0.46925 -1.44464,0.65192 -2.14278,0.548v0v0c-0.69814,-0.10392 -1.17496,-0.3872 -1.43047,-0.84986v0v0c-0.2555,-0.46266 -0.31798,-1.13249 -0.18744,-2.00949M790.56972,246.19003v0v0c-0.08416,0.56544 -0.03072,1.01866 0.16032,1.35967v0v0c0.19104,0.34101 0.50582,0.54415 0.94432,0.60942v0v0c0.4385,0.06527 0.89528,-0.03187 1.37034,-0.29143v0v0c0.47506,-0.25955 0.89891,-0.65058 1.27156,-1.17308v0v0c0.27734,-1.15003 0.70761,-2.49551 1.29083,-4.03644v0v0c-1.16549,-0.17348 -2.25521,0.09484 -3.26914,0.80497v0v0c-1.01393,0.71013 -1.60334,1.61909 -1.76824,2.72689zM801.57372,252.85271v0v0c-0.68083,-0.10134 -1.15618,-0.35492 -1.42604,-0.76074v0v0c-0.26986,-0.40582 -0.36099,-0.90299 -0.27339,-1.4915v0v0c0.0876,-0.58852 0.34844,-1.52869 0.78253,-2.82053v0v0c0.43409,-1.29184 0.85965,-2.46699 1.2767,-3.52545v0l-0.69397,-1.51872v0c1.2386,-0.47617 2.34256,-0.64211 3.31188,-0.49783v0v0c0.96932,0.14428 1.38871,0.65492 1.25817,1.53193v0v0c-0.08588,0.57698 -0.30619,1.14574 -0.66091,1.70629v0l0.16021,0.11231v0c1.54906,-1.92795 3.2756,-2.75022 5.17962,-2.46681v0v0c1.39628,0.20783 1.99051,1.00989 1.78268,2.40618v0v0c-0.08932,0.60006 -0.41068,1.5902 -0.96408,2.97043v0v0c-0.5534,1.38023 -0.88421,2.43384 -0.99242,3.16083v0v0c-0.10821,0.72699 -0.06606,1.27584 0.12646,1.64656v0v0c-0.69576,0.4744 -1.38406,0.66093 -2.06489,0.55959v0v0c-1.32705,-0.19753 -1.88408,-1.01174 -1.67109,-2.44264v0v0c0.07901,-0.53082 0.38608,-1.40514 0.9212,-2.62296v0v0c0.53513,-1.21782 0.83103,-2.01713 0.88771,-2.39794v0v0c0.07729,-0.51928 -0.08023,-0.80812 -0.47258,-0.86652v0v0c-0.32311,-0.04809 -0.71341,0.0383 -1.17092,0.25919v0v0c-0.45751,0.22088 -0.91519,0.542 -1.37304,0.96335v0v0c-0.45786,0.42135 -0.87402,0.97865 -1.2485,1.67191v0v0c-0.37448,0.69325 -0.61797,1.4178 -0.73048,2.17364v0v0c-0.1125,0.75584 -0.0725,1.31912 0.12002,1.68983v0v0c-0.69576,0.4744 -1.38406,0.66093 -2.06489,0.55959zM819.4817,253.78437v0l-0.16021,-0.11231v0c-1.077,1.0546 -2.23863,1.48914 -3.4849,1.30364v0v0c-0.92316,-0.13741 -1.65043,-0.62016 -2.18181,-1.44825v0v0c-0.53137,-0.82809 -0.70431,-1.86527 -0.51881,-3.11154v0v0c0.23016,-1.5463 0.98207,-2.87339 2.25573,-3.98128v0v0c0.62357,-0.54412 1.4084,-0.94334 2.35448,-1.19766v0v0c0.94608,-0.25432 1.96726,-0.29989 3.06351,-0.13671v0v0c0.20771,0.03092 0.57354,0.10896 1.09749,0.23413v0v0c0.05915,-0.23889 0.15488,-0.52542 0.28718,-0.85959v0l-0.76321,-1.52903v0c1.56783,-0.62768 2.76717,-0.87969 3.59801,-0.75602v0v0c0.47312,0.07042 0.7936,0.21544 0.96143,0.43504v0v0c0.16783,0.2196 0.21267,0.59193 0.13452,1.11698v0v0c-0.07815,0.52505 -0.55519,1.96678 -1.43112,4.32518v0v0c-0.87593,2.35841 -1.3899,4.04824 -1.54191,5.06948v0v0c-0.15201,1.02125 -0.0732,1.72005 0.23643,2.0964v0v0c-0.73038,0.46925 -1.44464,0.65192 -2.14278,0.548v0v0c-0.69814,-0.10392 -1.18257,-0.3559 -1.45329,-0.75595v0v0c-0.27072,-0.40005 -0.3743,-0.81356 -0.31075,-1.24052M816.48803,250.24253v0v0c-0.0979,0.65775 -0.00499,1.20237 0.27874,1.63384v0v0c0.28373,0.43147 0.67947,0.685 1.18721,0.76058v0v0c0.65775,0.0979 1.30419,-0.12435 1.9393,-0.66675v0v0c0.49037,-2.02656 1.01453,-3.765 1.57246,-5.21532v0v0c-1.32705,-0.19753 -2.44935,0.07184 -3.36691,0.80811v0v0c-0.91756,0.73627 -1.4545,1.62945 -1.6108,2.67955zM826.65435,254.56892v0v0c0.40906,-2.51047 0.68058,-4.21574 0.81456,-5.11582v0v0c0.19925,-1.33859 0.03539,-2.37736 -0.49155,-3.11633v0v0c0.67391,-0.40688 1.3686,-0.55708 2.08405,-0.45059v0v0c0.88854,0.13226 1.44475,0.59544 1.66861,1.38955v0v0c0.22386,0.79411 0.22586,1.9297 0.006,3.40676v0v0c-0.21986,1.47706 -0.45997,2.89213 -0.72035,4.24521v0l0.58852,0.0876v0c1.2034,-1.50759 1.97275,-2.71414 2.30805,-3.61964v0v0c0.07606,-0.59023 0.09331,-1.28063 0.05175,-2.0712v0v0c-0.04156,-0.79057 -0.13147,-1.35538 -0.26973,-1.69442v0v0c0.20573,-0.19349 0.49819,-0.33573 0.87739,-0.42673v0v0c0.3792,-0.091 0.78805,-0.10386 1.22655,-0.03859v0v0c0.4385,0.06527 0.82552,0.25852 1.16105,0.57975v0v0c0.33553,0.32123 0.46465,0.74149 0.38735,1.26077v0v0c-0.04809,0.32311 -0.14554,0.62118 -0.29234,0.8942v0v0c-0.1468,0.27303 -0.29488,0.55471 -0.44425,0.84505v0v0c-0.14937,0.29034 -0.27328,0.52844 -0.37171,0.71431v0l-0.68758,4.14393l0.58852,0.0876v0c0.84669,-1.17144 1.64802,-2.41451 2.40398,-3.72921v0v0c0.75596,-1.3147 1.18805,-2.33554 1.29626,-3.06253v0v0c0.03951,-0.26541 0.02622,-0.53278 -0.03984,-0.80211v0v0c0.85855,-0.3794 1.65132,-0.515 2.37831,-0.40679v0v0c0.94624,0.14085 1.33863,0.75363 1.17718,1.83834v0v0c-0.07386,0.4962 -0.29312,1.09756 -0.65777,1.80407v0v0c-0.36466,0.70651 -0.89668,1.60632 -1.59607,2.69943v0v0c-0.69939,1.09311 -1.06406,1.66103 -1.09401,1.70375v0l0.0929,1.04001v0c-0.50157,0.2792 -1.23276,0.53601 -2.19358,0.77044v0v0c-0.96082,0.23443 -1.81626,0.29582 -2.56633,0.18418v0v0c-1.20011,-0.17863 -1.84318,-0.81103 -1.92921,-1.8972v0v0c-1.24102,0.88864 -2.46736,1.24278 -3.67901,1.06243v0v0c-0.66929,-0.09962 -1.20909,-0.33626 -1.61938,-0.7099v0v0c-0.41029,-0.37364 -0.56305,-0.91242 -0.45828,-1.61633zM849.98129,246.19574v0v0c-0.06613,0.44427 -0.3536,0.79072 -0.86242,1.03936v0v0c-0.50882,0.24863 -1.05748,0.32915 -1.646,0.24155v0v0c-0.58852,-0.0876 -1.03581,-0.27213 -1.34187,-0.55359v0v0c-0.30606,-0.28146 -0.4299,-0.61836 -0.3715,-1.01071v0v0c0.07901,-0.53082 0.38895,-0.90931 0.9298,-1.13548v0v0c0.54086,-0.22617 1.08824,-0.29803 1.64213,-0.21559v0v0c0.5539,0.08245 0.98388,0.2644 1.28994,0.54586v0v0c0.30606,0.28146 0.42603,0.64433 0.3599,1.0886M844.59599,259.25646v0v0c-0.72122,-0.10735 -1.21676,-0.36394 -1.48662,-0.76976v0v0c-0.26986,-0.40582 -0.35026,-0.97511 -0.24119,-1.70787v0v0c0.10907,-0.73276 0.77076,-2.6424 1.98508,-5.72892v0l-0.7529,-1.59826v0c1.57126,-0.65076 2.77232,-0.91431 3.60317,-0.79064v0v0c0.47312,0.07042 0.79274,0.22121 0.95885,0.45235v0v0c0.16611,0.23114 0.21568,0.57173 0.14869,1.02178v0v0c-0.02576,0.17309 -0.3904,1.1568 -1.0939,2.95111v0v0c-0.7035,1.79431 -1.11451,3.08958 -1.23303,3.88581v0v0c-0.11852,0.79623 -0.0221,1.37675 0.28925,1.74156v0v0c-0.73038,0.46925 -1.45618,0.6502 -2.1774,0.54285zM849.59226,255.34694v0v0c0.27482,-1.84633 1.13365,-3.25777 2.57648,-4.23432v0v0c1.44283,-0.97655 3.1278,-1.32141 5.0549,-1.03456v0v0c0.9924,0.14772 1.74918,0.45203 2.27033,0.91295v0v0c0.52115,0.46092 0.73965,0.97409 0.65548,1.53953v0v0c-0.08416,0.56544 -0.34186,0.9694 -0.7731,1.21189v0v0c-0.43123,0.24249 -0.87476,0.32981 -1.33057,0.26196v0v0c-0.45581,-0.06785 -0.8532,-0.25085 -1.19216,-0.549v0v0c-0.33896,-0.29815 -0.57795,-0.69348 -0.71696,-1.18598v0v0c-0.77165,0.19182 -1.42475,0.63718 -1.95931,1.3361v0v0c-0.53456,0.69892 -0.85852,1.42918 -0.97188,2.19079v0v0c-0.11336,0.76161 -0.05524,1.4013 0.17436,1.91908v0v0c0.22961,0.51778 0.58674,0.81274 1.0714,0.88488v0v0c0.48466,0.07214 0.90394,-0.03058 1.25783,-0.30817v0v0c0.35389,-0.27759 0.57807,-0.73372 0.67254,-1.3684v0v0c1.68477,0.25077 2.4679,0.77428 2.34938,1.5705v0v0c-0.10134,0.68083 -0.6232,1.25484 -1.56559,1.72202v0v0c-0.94238,0.46718 -2.11172,0.59686 -3.508,0.38902v0v0c-1.39628,-0.20783 -2.47355,-0.79576 -3.23179,-1.76377v0v0c-0.75825,-0.96801 -1.03603,-2.13286 -0.83335,-3.49452zM871.2961,252.17271v0v0c1.39628,0.20783 1.99051,1.00989 1.78268,2.40618v0v0c-0.08932,0.60006 -0.41068,1.5902 -0.96408,2.97043v0v0c-0.5534,1.38023 -0.88421,2.43384 -0.99242,3.16083v0v0c-0.10821,0.72699 -0.06606,1.27584 0.12646,1.64656v0v0c-0.69576,0.4744 -1.38406,0.66093 -2.06489,0.55959v0v0c-1.32705,-0.19753 -1.88408,-1.01174 -1.67109,-2.44264v0v0c0.07901,-0.53082 0.38608,-1.40514 0.9212,-2.62296v0v0c0.53513,-1.21782 0.83103,-2.01713 0.88771,-2.39794v0v0c0.07729,-0.51928 -0.08023,-0.80812 -0.47258,-0.86652v0v0c-0.32311,-0.04809 -0.71341,0.0383 -1.17092,0.25919v0v0c-0.45751,0.22088 -0.91519,0.542 -1.37304,0.96335v0v0c-0.45786,0.42135 -0.87402,0.97865 -1.2485,1.67191v0v0c-0.37448,0.69325 -0.61797,1.4178 -0.73048,2.17364v0v0c-0.1125,0.75584 -0.0725,1.31912 0.12002,1.68983v0v0c-0.69576,0.4744 -1.38406,0.66093 -2.06489,0.55959v0v0c-1.32705,-0.19753 -1.88408,-1.01174 -1.67109,-2.44264v0v0c0.1271,-0.85393 0.61554,-2.5505 1.46531,-5.08973v0v0c0.73415,-2.23797 1.15069,-3.49113 1.24961,-3.75949v0l-0.76321,-1.52903v0c1.56783,-0.62768 2.76717,-0.87969 3.59801,-0.75602v0v0c0.47312,0.07042 0.7936,0.21544 0.96143,0.43504v0v0c0.16783,0.2196 0.21911,0.54865 0.15384,0.98716v0v0c-0.12367,0.83085 -0.33928,1.72468 -0.64683,2.68149v0v0c-0.30755,0.95681 -0.56492,1.65571 -0.7721,2.09668v0l0.16021,0.11231v0c1.54906,-1.92795 3.2756,-2.75022 5.17962,-2.46681zM878.28854,264.27151v0v0c-1.58092,-0.23532 -2.74025,-0.82661 -3.47799,-1.77388v0v0c-0.73774,-0.94727 -1.0027,-2.11905 -0.79487,-3.51533v0v0c0.27654,-1.85787 1.13868,-3.27176 2.58642,-4.24169v0v0c1.44774,-0.96993 3.13516,-1.31147 5.06226,-1.02462v0v0c1.07318,0.15974 1.85107,0.52028 2.33369,1.08161v0v0c0.48262,0.56134 0.66552,1.23435 0.54873,2.01904v0v0c-0.15974,1.07318 -0.81459,1.88688 -1.96455,2.44112v0v0c-1.14996,0.55424 -2.81629,0.67481 -4.99898,0.36171v0v0c-0.07531,0.74368 0.0057,1.34845 0.24304,1.8143v0v0c0.23733,0.46585 0.58102,0.73227 1.03106,0.79926v0v0c0.45004,0.06699 0.86183,-0.02506 1.23537,-0.27613v0v0c0.37354,-0.25108 0.61097,-0.71703 0.71231,-1.39786v0v0c1.68477,0.25077 2.4679,0.77428 2.34938,1.5705v0v0c-0.10134,0.68083 -0.61166,1.25656 -1.53097,1.72717v0v0c-0.9193,0.47062 -2.03094,0.60888 -3.33491,0.41479M881.06867,255.69739v0v0c-0.58852,-0.0876 -1.17179,0.12636 -1.74982,0.64188v0v0c-0.57803,0.51552 -1.03593,1.15507 -1.3737,1.91866v0v0c1.16769,0.07945 2.07512,-0.05383 2.72228,-0.39982v0v0c0.64716,-0.34599 1.00681,-0.76132 1.07895,-1.24598v0v0c0.03435,-0.23079 -0.00943,-0.43193 -0.13134,-0.60341v0v0c-0.12191,-0.17148 -0.30404,-0.27526 -0.54637,-0.31133zM891.67267,257.55885v0v0c-0.44586,0.06338 -0.81333,0.19446 -1.10241,0.39323v0v0c-0.28908,0.19877 -0.56434,0.50281 -0.82578,0.91211v0v0c1.90724,0.57877 3.21861,1.19859 3.93411,1.85946v0v0c0.7155,0.66087 0.99853,1.49328 0.8491,2.49722v0v0c-0.09447,0.63467 -0.35535,1.15906 -0.78264,1.57317v0v0c-0.42729,0.4141 -0.93015,0.70196 -1.50858,0.86356v0v0c-1.12862,0.29202 -2.20645,0.3616 -3.23347,0.20873v0v0c-2.9195,-0.43456 -4.28564,-1.28075 -4.09842,-2.53855v0v0c0.09447,-0.63467 0.47166,-1.22727 1.13156,-1.77778v0v0c0.22837,0.44682 0.61246,0.85785 1.15227,1.23308v0v0c0.53981,0.37523 1.08666,0.60407 1.64056,0.68651v0v0c0.95778,0.14256 1.59745,-0.19275 1.91901,-1.00593v0v0c-1.72309,-0.46879 -2.93404,-1.05007 -3.63285,-1.74385v0v0c-0.69881,-0.69378 -0.97006,-1.56571 -0.81375,-2.61581v0v0c0.12367,-0.83085 0.50165,-1.48819 1.13394,-1.97204v0v0c0.63229,-0.48385 1.37195,-0.77774 2.21898,-0.88167v0v0c0.84703,-0.10393 1.78117,-0.07989 2.80242,0.07212v0v0c1.02125,0.15201 1.83486,0.47068 2.44085,0.95602v0v0c0.60598,0.48534 0.86775,1.00496 0.7853,1.55885v0v0c-0.08245,0.5539 -0.33929,0.95209 -0.77052,1.19458v0v0c-0.43123,0.24249 -0.87476,0.32981 -1.33057,0.26196v0v0c-0.45581,-0.06785 -0.8532,-0.25085 -1.19216,-0.549v0v0c-0.33896,-0.29815 -0.57795,-0.69348 -0.71696,-1.18598z" id="CompoundPath 1" fill="#000000" stroke="none" stroke-width="1" stroke-linecap="butt" stroke-linejoin="miter"/><path d="M760.35978,459.94524v0v0c3.05824,0.30433 5.31676,0.8859 6.77557,1.74471v0v0c1.4588,0.85881 2.11154,2.05856 1.95822,3.59927v0v0c-0.15332,1.54071 -0.73891,2.66403 -1.75678,3.36996v0v0c-1.01787,0.70594 -2.12918,0.99896 -3.33394,0.87907v0v0c-1.20476,-0.11989 -2.25734,-0.53466 -3.15774,-1.2443v0v0c-0.9004,-0.70965 -1.48522,-1.59262 -1.75447,-2.64892v0v0c-0.85723,-0.08531 -1.70217,0.11724 -2.5348,0.60763v0v0c-0.83263,0.49039 -1.39816,1.177 -1.6966,2.05982v0v0c4.4767,1.56859 7.63751,3.19341 9.48245,4.87448v0v0c1.84494,1.68106 2.65212,3.68002 2.42157,5.99687v0v0c-0.23056,2.31685 -1.46338,4.066 -3.69846,5.24746v0v0c-2.23508,1.18146 -5.13081,1.59523 -8.68717,1.24133v0v0c-3.55636,-0.3539 -6.02752,-1.09117 -7.41347,-2.2118v0v0c-1.38595,-1.12063 -1.99938,-2.48026 -1.8403,-4.07889v0v0c0.15908,-1.59863 0.80361,-3.02026 1.93358,-4.26489v0v0c0.38279,1.091 1.22195,2.12212 2.51747,3.09337v0v0c1.29553,0.97125 2.61517,1.52373 3.95895,1.65745v0v0c2.47903,0.24669 4.13288,-0.38426 4.96154,-1.89285v0v0c-3.79525,-0.89243 -6.61943,-2.25563 -8.47255,-4.08959v0v0c-1.85312,-1.83396 -2.6644,-3.90937 -2.43384,-6.22622v0v0c0.15447,-1.55229 0.70926,-2.89511 1.66437,-4.02845v0v0c0.95511,-1.13335 2.11366,-1.95982 3.47565,-2.47943v0v0c2.67765,-1.04382 5.22123,-1.44585 7.63076,-1.20607zM787.88388,469.73872v0v0c1.29744,0.12911 2.36344,0.76165 3.19801,1.8976v0v0c0.83457,1.13596 1.1533,2.69439 0.95617,4.6753v0v0c-0.19713,1.98091 -0.72679,3.77663 -1.589,5.38718v0v0c-0.86221,1.61055 -1.91397,2.89221 -3.15528,3.84499v0v0c-1.24131,0.95278 -2.60959,1.65309 -4.10483,2.10095v0v0c-1.49524,0.44785 -2.99583,0.59685 -4.50179,0.44699v0v0c-3.03507,-0.30203 -5.35001,-1.37472 -6.94482,-3.21807v0v0c-1.59481,-1.84335 -2.25503,-4.14356 -1.98067,-6.90061v0v0c0.3712,-3.73013 1.87162,-6.6401 4.50127,-8.72991v0v0c2.62965,-2.08981 5.79795,-2.95027 9.50491,-2.58138v0v0c0.83407,0.083 1.65891,0.25867 2.47453,0.52702v0v0c0.17877,0.78992 0.23132,1.67257 0.15766,2.64796v0v0c0.50268,-0.11376 0.99729,-0.14644 1.48382,-0.09802M783.12858,474.14398v0v0c0.06456,-0.64872 0.29357,-1.36296 0.68704,-2.14274v0v0c0.39347,-0.77977 0.96194,-1.37834 1.70541,-1.79572v0v0c-3.1228,0.34438 -5.35448,1.37409 -6.69504,3.08913v0v0c-1.15302,1.47632 -1.81254,3.04854 -1.97854,4.71668v0v0c-0.166,1.66813 0.04259,3.04012 0.62577,4.11596v0v0c0.58318,1.07584 1.40764,1.66679 2.47339,1.77285v0v0c2.36319,0.23517 4.18464,-1.13954 5.46436,-4.12411v0v0c-1.76137,-1.34518 -2.52217,-3.22253 -2.28239,-5.63205zM799.88635,490.20131v0v0c-2.03883,-0.20289 -3.41412,-0.8428 -4.12588,-1.91974v0v0c-0.71176,-1.07694 -0.99213,-2.37418 -0.84112,-3.89172v0v0c0.15101,-1.51754 0.61279,-3.57155 1.38533,-6.16204v0v0c0.77254,-2.59049 1.2176,-4.47653 1.33519,-5.65812v0v0c0.11758,-1.18159 -0.03346,-2.13254 -0.45314,-2.85285v0v0c2.26764,-0.92084 4.14286,-1.30748 5.62564,-1.15993v0v0c0.94991,0.09453 1.62015,0.35426 2.01073,0.77919v0v0c0.39058,0.42493 0.54321,1.06602 0.4579,1.92325v0v0c-0.08531,0.85723 -0.64785,2.92462 -1.68765,6.20214v0v0c-1.03979,3.27753 -1.59888,5.31016 -1.67727,6.09789v0v0c-0.07839,0.78773 0.08004,1.42939 0.47528,1.92498v0v0c0.39524,0.49559 0.95198,0.77912 1.6702,0.8506v0v0c0.71822,0.07147 1.51103,-0.13626 2.37841,-0.62319v0v0c0.86738,-0.48693 1.6078,-1.22633 2.22126,-2.21819v0v0c0.51111,-1.84437 1.44335,-4.74654 2.79674,-8.7065v0l-1.8085,-2.98772v0c2.50832,-1.45844 4.81665,-2.08276 6.92499,-1.87295v0v0c1.04258,0.10375 1.77075,0.36924 2.18449,0.79648v0v0c0.41374,0.42724 0.582,1.02893 0.50476,1.80508v0v0c-0.07724,0.77614 -0.72082,2.95245 -1.93075,6.52892v0v0c-1.20993,3.57647 -1.89155,6.13506 -2.04487,7.67576v0v0c-0.15332,1.54071 0.09801,2.65957 0.75398,3.35659v0v0c-1.41041,1.00615 -2.82804,1.43832 -4.25291,1.29653v0v0c-1.42486,-0.14179 -2.41894,-0.55659 -2.98224,-1.24439v0v0c-0.5633,-0.6878 -0.79423,-1.54141 -0.69278,-2.56082v0l-0.33024,-0.20835v0c-0.87523,1.036 -2.02222,1.80514 -3.44098,2.30739v0v0c-1.41876,0.50226 -2.90428,0.67615 -4.45657,0.52168zM823.8548,498.69334v0v0c-1.43645,-0.14294 -2.40332,-0.59598 -2.90063,-1.35911v0v0c-0.49731,-0.76313 -0.67968,-1.81078 -0.54711,-3.14297v0v0c0.13257,-1.33219 0.68325,-3.9857 1.65205,-7.96053v0v0c0.9688,-3.97483 1.86142,-7.3606 2.67788,-10.1573v0l-1.66949,-2.97389v0c1.51945,-0.69112 2.82179,-1.19912 3.90702,-1.52398v0v0c1.08524,-0.32487 2.13756,-0.43658 3.15697,-0.33513v0v0c1.66813,0.166 2.39268,1.3495 2.17366,3.55051v0v0c-0.02997,0.30119 -0.13741,0.91054 -0.3223,1.82806v0l0.33024,0.20835v0c0.83789,-1.60127 1.94065,-2.80767 3.30829,-3.61918v0v0c1.36764,-0.81152 2.91449,-1.1314 4.64054,-0.95963v0v0c1.72605,0.17176 3.02097,1.09031 3.88476,2.75562v0v0c0.86379,1.66532 1.1804,3.6564 0.94985,5.97325v0v0c-0.30895,3.10458 -1.67914,5.82277 -4.11059,8.15459v0v0c-1.19025,1.14504 -2.71598,2.01687 -4.57719,2.61549v0v0c-1.86121,0.59862 -3.89232,0.78841 -6.09333,0.56938v0v0c-0.67189,-0.06686 -1.54653,-0.21239 -2.62392,-0.4366v0v0c-0.1502,0.80398 -0.25988,1.5535 -0.32905,2.24855v0v0c-0.14756,1.48278 0.10665,2.57269 0.76263,3.26971v0v0c-1.41041,1.00615 -2.83384,1.43775 -4.27028,1.2948M829.83916,484.75874v0l-1.20048,3.95178v0c2.81031,0.20947 5.1435,-0.48842 6.9996,-2.09365v0v0c1.85609,-1.60524 2.88904,-3.46202 3.09885,-5.57036v0v0c0.10836,-1.08892 -0.01891,-1.98486 -0.38182,-2.68781v0v0c-0.36291,-0.70296 -0.94981,-1.09478 -1.76071,-1.17547v0v0c-2.87289,-0.28589 -5.1247,2.23928 -6.75543,7.57552zM860.00723,478.91643v0v0c-0.8826,0.16955 -1.60238,0.46644 -2.15935,0.89067v0v0c-0.55697,0.42423 -1.07619,1.05695 -1.55767,1.89816v0v0c3.85784,0.96885 6.53189,2.07728 8.02215,3.32528v0v0c1.49027,1.248 2.13511,2.87983 1.93452,4.89549v0v0c-0.12681,1.27427 -0.59601,2.34483 -1.40761,3.21168v0v0c-0.8116,0.86685 -1.78607,1.48937 -2.9234,1.86754v0v0c-2.22142,0.69146 -4.36313,0.93459 -6.42512,0.7294v0v0c-5.86163,-0.58331 -8.66679,-2.13764 -8.41549,-4.66301v0v0c0.12681,-1.27427 0.82124,-2.49205 2.0833,-3.65334v0v0c0.49852,0.86854 1.30396,1.65063 2.41633,2.34627v0v0c1.11237,0.69564 2.2246,1.0988 3.33669,1.20947v0v0c1.92299,0.19136 3.16556,-0.53901 3.72773,-2.19112v0v0c-3.48011,-0.76748 -5.95026,-1.80882 -7.41044,-3.12402v0v0c-1.46018,-1.3152 -2.08537,-3.02697 -1.87556,-5.1353v0v0c0.166,-1.66813 0.85574,-3.01507 2.06921,-4.04081v0v0c1.21348,-1.02574 2.65938,-1.68324 4.33772,-1.97248v0v0c1.67834,-0.28924 3.54271,-0.33184 5.59312,-0.1278v0v0c2.05041,0.20404 3.70309,0.76042 4.95805,1.66913v0v0c1.25495,0.90871 1.8271,1.91912 1.71643,3.0312v0v0c-0.11067,1.11209 -0.58405,1.9307 -1.42013,2.45585v0v0c-0.83609,0.52514 -1.71171,0.74218 -2.62687,0.65111v0v0c-0.91516,-0.09107 -1.72501,-0.41734 -2.42957,-0.97881v0v0c-0.70456,-0.56147 -1.21924,-1.32632 -1.54406,-2.29456z" id="CompoundPath 1" fill="#000000" stroke="none" stroke-width="1" stroke-linecap="butt" stroke-linejoin="miter"/><path d="M577.68505,354.05226v0l-0.07137,5.7332h0.61852v0c0.88813,-1.88728 1.70489,-3.90539 2.45029,-6.05435v0v0c0.74539,-2.14896 1.11809,-3.78645 1.11809,-4.91247v0v0c0,-0.44407 -0.08723,-0.87227 -0.26168,-1.28462v0v0c1.20532,-0.82469 2.31548,-1.23704 3.33049,-1.23704v0v0c1.58595,0 2.37892,0.89606 2.37892,2.68818v0v0c0,0.88813 -0.24186,2.01019 -0.72557,3.36617v0v0c-0.48371,1.35598 -1.20135,3.05295 -2.15292,5.09089v0v0c-0.95157,2.03794 -1.45907,3.13621 -1.52251,3.2948v0l0.33305,1.30841v0c-1.36391,1.39563 -3.06881,2.09345 -5.11468,2.09345v0v0c-2.04587,0 -3.33842,-0.3727 -3.87764,-1.11809v0v0c-1.3322,0.74539 -2.75955,1.11809 -4.28206,1.11809v0v0c-1.52251,0 -2.61681,-0.22203 -3.28291,-0.6661v0v0c-0.6661,-0.44407 -0.99915,-1.18946 -0.99915,-2.23618v0l0.02379,-4.37721v0c0,-3.63182 -0.44407,-6.19312 -1.3322,-7.68391v0v0c-0.41235,-0.68196 -0.91985,-1.22911 -1.52251,-1.64145v0v0c1.07844,-0.82469 2.31548,-1.23704 3.71112,-1.23704v0v0c1.26876,0 2.2124,0.49561 2.83091,1.48682v0v0c0.61852,0.99122 1.02294,2.17671 1.21325,3.55649v0v0c0.15859,1.2529 0.23789,2.73576 0.23789,4.44858v0l-0.07137,3.99659h0.61852v0c0.90399,-1.96657 1.66524,-4.29792 2.28376,-6.99402v0v0c-0.15859,-1.52251 -0.5075,-3.05295 -1.04672,-4.59132v0v0c0.5868,-0.45992 1.13395,-0.78901 1.64145,-0.98725v0v0c0.5075,-0.19824 1.18153,-0.29737 2.02208,-0.29737v0v0c1.72868,0 2.59302,0.8009 2.59302,2.40271v0v0c0,0.95157 -0.38063,2.52958 -1.14188,4.73405zM588.31882,361.18902v0v0c0,-0.63438 0.16256,-1.86349 0.48768,-3.68733v0v0c0.32512,-1.82384 0.66213,-3.48908 1.01104,-4.99573v0l-1.23704,-1.90314v0c1.98243,-0.88813 3.3741,-1.3322 4.175,-1.3322v0v0c0.8009,0 1.20135,0.5075 1.20135,1.52251v0v0c0,0.55508 -0.26168,1.71282 -0.78504,3.47322v0l0.23789,0.11895v0c1.14188,-3.40979 2.5613,-5.11468 4.25827,-5.11468v0v0c0.77711,0 1.37184,0.23789 1.78419,0.71368v0v0c0.41235,0.47578 0.61852,1.00708 0.61852,1.59388v0v0c0,0.87227 -0.32512,1.61767 -0.97536,2.23618v0v0c-0.65024,0.61852 -1.6256,0.92778 -2.92607,0.92778v0v0c-1.96657,0 -2.94986,2.02208 -2.94986,6.06625v0v0c0,0.98329 0.16652,1.70489 0.49957,2.16482v0v0c-0.98329,0.77711 -1.88728,1.16567 -2.71197,1.16567v0v0c-1.79212,0 -2.68818,-0.98329 -2.68818,-2.94986zM609.03922,360.61808v0l-0.23789,-0.11895v0c-0.42821,1.14188 -1.04276,2.03398 -1.84366,2.67629v0v0c-0.8009,0.64231 -1.693,0.96346 -2.67629,0.96346v0v0c-1.34805,0 -2.4265,-0.5075 -3.23533,-1.52251v0v0c-0.80883,-1.01501 -1.21325,-2.37099 -1.21325,-4.06795v0v0c0,-2.63267 0.88417,-4.83714 2.6525,-6.6134v0v0c1.76833,-1.77626 3.96883,-2.66439 6.6015,-2.66439v0v0c0.68196,0 1.30841,0.06344 1.87935,0.19031v0v0c0.09516,0.44407 0.15066,0.83262 0.16652,1.16567v0v0c0.79297,-0.5075 1.60974,-0.76125 2.45029,-0.76125v0v0c1.15774,0 1.73661,0.62645 1.73661,1.87935v0v0c0,0.44407 -0.24979,1.78419 -0.74936,4.02037v0v0c-0.49957,2.23618 -0.74936,3.8935 -0.74936,4.97194v0v0c0,1.07844 0.24582,1.82384 0.73747,2.23618v0v0c-0.88813,0.77711 -1.81194,1.16567 -2.77144,1.16567v0v0c-0.9595,0 -1.65731,-0.28547 -2.09345,-0.85641v0v0c-0.43614,-0.57094 -0.6542,-1.45907 -0.6542,-2.66439M604.30516,357.38275v0v0c0,0.77711 0.16256,1.37581 0.48768,1.79608v0v0c0.32512,0.42028 0.78901,0.63041 1.39167,0.63041v0v0c0.60266,0 1.19739,-0.22203 1.78419,-0.6661v0v0c0.5868,-0.44407 1.07844,-1.05465 1.47493,-1.83177v0v0c0.14274,-1.60181 0.45199,-3.49701 0.92778,-5.68562v0v0c-1.60181,0 -3.0133,0.57887 -4.23448,1.73661v0v0c-1.22118,1.15774 -1.83177,2.49787 -1.83177,4.02037zM620.33909,368.2782v0v0c-0.98329,0 -1.66921,-0.24186 -2.05777,-0.72557v0v0c-0.38856,-0.48371 -0.58284,-1.18153 -0.58284,-2.09345v0v0c0,-0.91192 0.19428,-2.74765 0.58284,-5.5072v0v0c0.38856,-2.75955 0.76522,-5.11468 1.12999,-7.06539v0l-1.3322,-1.90314v0c0.98329,-0.57094 1.83177,-1.00311 2.54544,-1.29651v0v0c0.71368,-0.2934 1.41942,-0.4401 2.11724,-0.4401v0v0c1.14188,0 1.71282,0.75332 1.71282,2.25997v0v0c0,0.20617 -0.03172,0.62645 -0.09516,1.26083v0l0.23789,0.11895v0c0.45992,-1.14188 1.12602,-2.03398 1.99829,-2.67629v0v0c0.87227,-0.64231 1.89917,-0.96346 3.0807,-0.96346v0v0c1.18153,0 2.1212,0.53526 2.81902,1.60577v0v0c0.69782,1.07051 1.04672,2.39874 1.04672,3.98469v0v0c0,2.12517 -0.74539,4.06002 -2.23618,5.80456v0v0c-0.72954,0.85641 -1.70489,1.55026 -2.92607,2.08155v0v0c-1.22118,0.53129 -2.58509,0.79694 -4.09174,0.79694v0v0c-0.45992,0 -1.06258,-0.03965 -1.80798,-0.11895v0v0c-0.04758,0.55508 -0.07137,1.07051 -0.07137,1.5463v0v0c0,1.01501 0.24582,1.73661 0.73747,2.16482v0v0c-0.88813,0.77711 -1.82384,1.16567 -2.80713,1.16567M623.45547,358.42947v0l-0.54715,2.75955v0c1.919,-0.04758 3.4534,-0.67799 4.60321,-1.89124v0v0c1.14981,-1.21325 1.72472,-2.54148 1.72472,-3.98469v0v0c0,-0.74539 -0.1467,-1.34409 -0.4401,-1.79608v0v0c-0.2934,-0.45199 -0.71764,-0.67799 -1.27272,-0.67799v0v0c-1.96657,0 -3.32256,1.86349 -4.06795,5.59046zM643.50977,352.4346v0v0c-0.5868,0.17445 -1.05465,0.42424 -1.40356,0.74936v0v0c-0.34891,0.32512 -0.65817,0.78901 -0.92778,1.39167v0v0c2.68025,0.39649 4.56753,0.96743 5.66183,1.71282v0v0c1.0943,0.74539 1.64145,1.80798 1.64145,3.18775v0v0c0,0.87227 -0.24582,1.62956 -0.73747,2.27187v0v0c-0.49164,0.64231 -1.11016,1.12999 -1.85556,1.46304v0v0c-1.45907,0.61852 -2.89435,0.92778 -4.30585,0.92778v0v0c-4.01245,0 -6.01867,-0.86434 -6.01867,-2.59302v0v0c0,-0.87227 0.38856,-1.74454 1.16567,-2.61681v0v0c0.39649,0.55508 0.99518,1.03087 1.79608,1.42735v0v0c0.8009,0.39649 1.58198,0.59473 2.34324,0.59473v0v0c1.31634,0 2.10931,-0.57887 2.37892,-1.73661v0v0c-2.41064,-0.28547 -4.15518,-0.82469 -5.23362,-1.61767v0v0c-1.07844,-0.79297 -1.61767,-1.91107 -1.61767,-3.35428v0v0c0,-1.14188 0.37666,-2.10138 1.12999,-2.87849v0v0c0.75332,-0.77711 1.68903,-1.3203 2.80713,-1.62956v0v0c1.11809,-0.30926 2.37892,-0.46389 3.78248,-0.46389v0v0c1.40356,0 2.5613,0.26565 3.47322,0.79694v0v0c0.91192,0.53129 1.36788,1.17757 1.36788,1.93882v0v0c0,0.76125 -0.26565,1.34805 -0.79694,1.7604v0v0c-0.53129,0.41235 -1.11016,0.61852 -1.73661,0.61852v0v0c-0.62645,0 -1.19739,-0.16652 -1.71282,-0.49957v0v0c-0.51543,-0.33305 -0.91588,-0.81676 -1.20135,-1.45114z" id="CompoundPath 1" fill="#000000" stroke="none" stroke-width="1" stroke-linecap="butt" stroke-linejoin="miter"/><path d="M595.09523,665.32504v0v0c-0.1012,-1.11824 -0.01479,-3.11384 0.25923,-5.9868v0v0c0.27402,-2.87296 0.43615,-4.68752 0.48639,-5.44366v0l-1.84462,-3.00757v0c2.36368,-1.638 4.41853,-2.53601 6.16455,-2.69403v0v0c0.8632,-0.07812 1.53724,0.15756 2.0221,0.70705v0v0c1.57682,-0.71629 3.05187,-1.13658 4.42515,-1.26087v0v0c2.55037,-0.23081 4.60682,0.41873 6.16936,1.94863v0v0c1.56254,1.5299 2.45567,3.5308 2.67938,6.0027v0v0c0.29473,3.25662 -0.63122,6.35671 -2.77785,9.30025v0v0c-1.03852,1.41918 -2.46796,2.6166 -4.28832,3.59229v0v0c-1.82036,0.97568 -3.80955,1.56118 -5.96755,1.75648v0v0c-2.158,0.1953 -3.87842,-0.12863 -5.16124,-0.97181v0v0c-1.28282,-0.84318 -2.00502,-2.1574 -2.16659,-3.94265M601.43503,665.87867v0v0c0.41908,0.04119 0.88366,0.0387 1.39374,-0.00746v0v0c2.13839,-0.19353 3.73625,-1.11446 4.79358,-2.7628v0v0c1.05734,-1.64834 1.48391,-3.60055 1.27973,-5.85665v0v0c-0.16512,-1.82449 -0.70849,-3.23896 -1.63011,-4.24339v0v0c-0.92162,-1.00443 -2.15735,-1.43651 -3.70719,-1.29625v0v0c-0.23542,0.02131 -0.62423,0.09605 -1.16644,0.22424v0v0c-0.04678,1.01296 -0.20285,3.27693 -0.46821,6.79193v0v0c-0.26536,3.51499 -0.4304,5.89845 -0.49511,7.15038zM617.95415,665.15503v0v0c-0.07102,-0.78473 -0.00753,-2.32334 0.19046,-4.61583v0v0c0.19799,-2.29249 0.42845,-4.39014 0.69138,-6.29293v0l-1.74328,-2.2157v0c2.35285,-1.32056 4.02463,-2.02567 5.01535,-2.11533v0v0c0.99072,-0.08966 1.5429,0.49329 1.65653,1.74886v0v0c0.06214,0.68664 -0.13195,2.14806 -0.58227,4.38428v0l0.30759,0.1205v0c1.03078,-4.34575 2.59575,-6.61362 4.69489,-6.8036v0v0c0.96129,-0.087 1.72361,0.14069 2.28695,0.68308v0v0c0.56334,0.54238 0.87785,1.17651 0.94355,1.90239v0v0c0.09765,1.079 -0.22107,2.03746 -0.95618,2.87536v0v0c-0.7351,0.83791 -1.907,1.32965 -3.5157,1.47524v0v0c-2.43266,0.22016 -3.42261,2.83157 -2.96986,7.83421v0v0c0.11008,1.21633 0.39686,2.09032 0.86033,2.62196v0v0c-1.12933,1.07137 -2.20407,1.65322 -3.22422,1.74555v0v0c-2.21686,0.20063 -3.43537,-0.91538 -3.65553,-3.34804zM641.26982,643.47862v0v0c0.06836,0.7553 -0.26542,1.43821 -1.00132,2.04873v0v0c-0.7359,0.61052 -1.60412,0.96106 -2.60465,1.05161v0v0c-1.00053,0.09055 -1.80792,-0.03417 -2.42217,-0.37416v0v0c-0.61425,-0.33999 -0.95155,-0.84349 -1.01192,-1.51051v0v0c-0.08167,-0.90244 0.2762,-1.64687 1.07362,-2.23329v0v0c0.79742,-0.58642 1.66697,-0.92224 2.60864,-1.00747v0v0c0.94167,-0.08522 1.71964,0.04216 2.33388,0.38215v0v0c0.61425,0.33999 0.95555,0.88763 1.02391,1.64293M637.63286,667.05294v0v0c-1.22614,0.11097 -2.14138,-0.11277 -2.74573,-0.67122v0v0c-0.60435,-0.55845 -0.9629,-1.46055 -1.07564,-2.70631v0v0c-0.11274,-1.24576 0.21276,-4.64257 0.97651,-10.19045v0l-1.87164,-2.32275v0c2.31912,-1.6933 4.18493,-2.60387 5.59744,-2.73171v0v0c0.80435,-0.0728 1.38881,0.04737 1.75339,0.36051v0v0c0.36458,0.31314 0.58149,0.85226 0.65074,1.61737v0v0c0.02663,0.29427 -0.18006,2.05352 -0.62008,5.27775v0v0c-0.44002,3.22423 -0.59877,5.51317 -0.47627,6.86683v0v0c0.12251,1.35366 0.51182,2.26781 1.16792,2.74246v0v0c-1.01162,1.06072 -2.1305,1.64657 -3.35664,1.75753zM648.6534,666.05555v0v0c-1.15748,0.10475 -2.03839,-0.12209 -2.64274,-0.68055v0v0c-0.60435,-0.55845 -0.9518,-1.33794 -1.04235,-2.33847v0v0c-0.09055,-1.00053 -0.03683,-2.64704 0.16116,-4.93953v0v0c0.19799,-2.29249 0.42845,-4.39014 0.69138,-6.29293v0l-1.74328,-2.2157v0c1.84278,-1.27439 3.58813,-1.98616 5.23606,-2.1353v0v0c1.64793,-0.14914 2.53936,0.52178 2.6743,2.01276v0v0c0.08877,0.98091 -0.04628,2.00186 -0.40518,3.06284v0l0.30759,0.1205v0c1.77423,-3.78011 4.27985,-5.81665 7.51686,-6.1096v0v0c2.3738,-0.21483 3.66812,0.86465 3.88296,3.23845v0v0c0.09233,1.02015 -0.0408,2.77274 -0.39938,5.25778v0v0c-0.35858,2.48504 -0.48194,4.34553 -0.37008,5.58148v0v0c0.11186,1.23595 0.39952,2.11974 0.86299,2.65139v0v0c-0.95277,1.05539 -2.00789,1.63547 -3.16536,1.74022v0v0c-2.2561,0.20418 -3.49422,-0.91006 -3.71439,-3.34272v0v0c-0.08167,-0.90244 0.07411,-2.45929 0.46735,-4.67056v0v0c0.39324,-2.21127 0.56057,-3.6406 0.50198,-4.28801v0v0c-0.0799,-0.88282 -0.45336,-1.29405 -1.12038,-1.23368v0v0c-0.54931,0.04971 -1.15534,0.34685 -1.8181,0.89142v0v0c-0.66276,0.54456 -1.2859,1.25366 -1.86943,2.1273v0v0c-0.58353,0.87364 -1.04453,1.95375 -1.383,3.24034v0v0c-0.33848,1.28659 -0.44957,2.57239 -0.33327,3.85738v0v0c0.11629,1.28499 0.40618,2.19331 0.86965,2.72495v0v0c-0.95277,1.05539 -2.00789,1.63547 -3.16536,1.74022zM668.47108,645.06657v0l-1.86099,-2.20504v0c2.32267,-1.65407 4.19026,-2.54502 5.60277,-2.67285v0v0c0.80435,-0.0728 1.38792,0.03757 1.75073,0.33108v0v0c0.36281,0.29352 0.57839,0.81793 0.64674,1.57323v0v0c0.06836,0.7553 0.04118,1.82088 -0.08154,3.19673v0v0c-0.12272,1.37585 -0.30172,3.00403 -0.53699,4.88454v0v0c-0.23528,1.88051 -0.3906,3.38787 -0.46596,4.52209v0l1.70478,-1.81571v0c0.16236,-0.17293 0.42909,-0.44925 0.80019,-0.82896v0v0c0.3711,-0.37972 0.63293,-0.65559 0.78548,-0.82763v0v0c0.15255,-0.17204 0.36309,-0.4136 0.63162,-0.7247v0v0c0.26853,-0.3111 0.46258,-0.57095 0.58215,-0.77956v0v0c0.11957,-0.20861 0.2561,-0.44842 0.40958,-0.71944v0v0c0.23559,-0.45646 0.32898,-0.95444 0.28015,-1.49394v0v0c-0.04883,-0.5395 -0.17035,-1.00814 -0.36459,-1.40592v0v0c1.31655,-0.96964 2.59279,-1.51039 3.82874,-1.62225v0v0c0.82397,-0.07457 1.5047,0.12589 2.04221,0.60139v0v0c0.53751,0.4755 0.85065,1.2037 0.93942,2.18461v0v0c0.08877,0.98091 -0.26832,2.00712 -1.07129,3.07862v0v0c-0.80297,1.07151 -1.82793,2.03948 -3.07488,2.90393v0v0c0.79104,1.96564 1.74355,3.74854 2.85754,5.34871v0v0c1.11399,1.60017 2.00977,2.53771 2.68736,2.81263v0v0c-0.71193,0.87537 -1.89187,1.38762 -3.5398,1.53676v0v0c-1.21633,0.11008 -2.27867,-0.20913 -3.18701,-0.95764v0v0c-0.90835,-0.74851 -1.77144,-2.03514 -2.58929,-3.8599v0l-0.92477,-2.02276l-2.89519,1.77511v0c-0.00009,0.21758 0.0194,0.54216 0.05846,0.97377v0v0c0.14737,1.62831 0.5562,2.75827 1.22651,3.38986v0v0c-1.28628,1.08558 -2.48853,1.67897 -3.60677,1.78017v0v0c-1.11824,0.1012 -1.97059,-0.19251 -2.55705,-0.88114v0v0c-0.58646,-0.68863 -0.93829,-1.68035 -1.05547,-2.97515v0v0c-0.11718,-1.2948 0.00606,-3.97611 0.36974,-8.04392v0v0c0.36367,-4.06781 0.56615,-6.42005 0.60742,-7.05671zM696.95756,647.08708v0v0c-0.70634,0.28149 -1.25712,0.64286 -1.65232,1.08409v0v0c-0.3952,0.44123 -0.72583,1.04969 -0.99187,1.82537v0v0c3.35987,0.1904 5.75835,0.68537 7.19546,1.48492v0v0c1.43711,0.79955 2.23289,2.05271 2.38736,3.7595v0v0c0.09765,1.079 -0.12165,2.04329 -0.65791,2.89287v0v0c-0.53626,0.84958 -1.24677,1.52208 -2.13154,2.01751v0v0c-1.73563,0.92846 -3.47646,1.47169 -5.22248,1.62971v0v0c-4.96341,0.4492 -7.54188,-0.39539 -7.73541,-2.53378v0v0c-0.09765,-1.079 0.28534,-2.2015 1.14898,-3.36751v0v0c0.5526,0.64225 1.34645,1.16377 2.38156,1.56456v0v0c1.03511,0.40079 2.0235,0.55858 2.96517,0.47335v0v0c1.62831,-0.14737 2.54442,-0.95221 2.74832,-2.41452v0v0c-3.01393,-0.08325 -5.2323,-0.55497 -6.65511,-1.41514v0v0c-1.42281,-0.86018 -2.21501,-2.1829 -2.37658,-3.96815v0v0c-0.12784,-1.41251 0.23068,-2.64158 1.07555,-3.68721v0v0c0.84487,-1.04563 1.94153,-1.82231 3.28999,-2.33003v0v0c1.34846,-0.50773 2.8908,-0.84016 4.62701,-0.99729v0v0c1.73621,-0.15713 3.19808,0.04186 4.38561,0.59698v0v0c1.18753,0.55512 1.8239,1.30352 1.90913,2.24519v0v0c0.08522,0.94167 -0.17769,1.69729 -0.78874,2.26684v0v0c-0.61105,0.56955 -1.30403,0.8894 -2.07895,0.95953v0v0c-0.77492,0.07013 -1.49982,-0.07194 -2.1747,-0.42622v0v0c-0.67488,-0.35428 -1.22439,-0.9078 -1.64854,-1.66057z" id="CompoundPath 1" fill="#000000" stroke="none" stroke-width="1" stroke-linecap="butt" stroke-linejoin="miter"/></g></g></g></svg>