<svg version="1.1" xmlns="http://www.w3.org/2000/svg" xmlns:xlink="http://www.w3.org/1999/xlink" width="522.65282" height="579.42085" viewBox="742.5,164.70299,522.65282,579.42085"><g fill-opacity="0" fill="#000000" fill-rule="nonzero" stroke="#000000" stroke-width="5" stroke-linecap="round" stroke-linejoin="round" stroke-miterlimit="10" stroke-dasharray="" stroke-dashoffset="0" font-family="none" font-weight="none" font-size="none" text-anchor="none" style="mix-blend-mode: normal"><path d="M912,196c40.81437,13.19033 82.71928,22.68593 124.81932,30.43051c19.83176,3.64818 39.1488,9.37079 59.26933,11.42134c32.53652,3.31591 64.76133,-0.82544 96.35022,-8.823c21.18877,-5.49879 40.73223,-13.3052 58.24045,-26.65531c7.99984,-6.09992 17.25081,-15.65517 8.31156,-25.55359c-5.99684,-6.6403 -14.86531,-9.00407 -23.50956,-9.51205c-19.00719,-1.11697 -40.92701,6.72261 -53.11655,21.73038c-17.68432,21.77294 -16.98456,49.20256 -10.97326,75.01147c1.36301,5.74612 2.72883,11.48738 3.80471,17.29558" id="Path 1"/><path d="M745,363c3.43343,-8.86256 6.92561,-17.58934 12.91867,-25.07765c5.09278,-6.36342 11.60469,-11.65806 18.66915,-15.67607c4.69153,-2.66837 9.75889,-4.66983 15.05149,-5.7791c48.89248,-10.24735 75.53056,43.72851 111.71906,64.96754c16.88446,9.90949 35.08808,12.41387 54.26011,10.04334c49.51022,-6.90564 100.90646,-15.9378 134.91515,-56.00082" id="Path 1"/><path d="M748,415c16.36948,15.51249 30.75584,32.80624 46.71719,48.6826c9.41067,9.36056 19.94802,17.40941 30.3385,25.63107c13.7877,10.90978 27.82961,22.08598 43.99075,29.32374c19.19421,8.59611 42.01538,11.72856 62.93499,9.79984c11.64157,-1.07332 22.88078,-4.41559 33.53346,-9.13666c32.47698,-15.25987 56.0208,-42.63284 85.25163,-62.63232c26.90934,-18.41114 59.07333,-27.82153 91.30684,-30.64347c17.97094,-1.5733 36.40061,-1.5989 54.025,2.71424c21.99359,7.2573 44.46462,28.14707 29.69373,52.62403c-2.52123,4.17794 -5.9739,7.71999 -9.80133,10.71284c-17.83192,13.94361 -40.38053,13.0808 -60.58243,20.72761" id="Path 1"/><path d="M1130,552c-16.56555,36.98067 -38.7599,70.91545 -79.80303,83.28975c-10.30757,3.10768 -22.20943,4.84016 -32.83717,2.17295c-3.69215,-0.9266 -9.63476,-2.25092 -11.72536,-5.94331c-2.15127,-3.79954 -0.12006,-8.0628 2.28721,-11.16224c5.19997,-6.69514 14.44924,-9.39889 22.38154,-10.96375c18.69238,-3.68757 40.53554,-2.0032 51.15266,15.95534c2.79597,4.72929 4.41774,9.93653 5.63658,15.25788c6.54477,35.04567 -16.46354,65.3222 -46.21525,80.8672c-23.75573,12.41216 -50.44207,17.36334 -76.95047,19.25541c-31.45519,2.24515 -60.11802,0.7804 -89.93647,-10.38955c-15.604,-6.1128 -29.23381,-14.68784 -41.81561,-25.71253" id="Path 1"/></g></svg>